{
  "accessors": [
    {
      "bufferView": 2,
      "componentType": 5126,
      "count": 3653,
      "max": [
        0.5745129585266113,
        0.5788747668266296,
        3.1510279178619385
      ],
      "min": [
        -0.5256351232528687,
        -0.5169317126274109,
        -0.043381497263908386
      ],
      "type": "VEC3"
    },
    {
      "bufferView": 2,
      "byteOffset": 43836,
      "componentType": 5126,
      "count": 3653,
      "max": [
        0.9999707341194153,
        0.9999816417694092,
        0.9991950988769531
      ],
      "min": [
        -0.9999319911003113,
        -0.9997905492782593,
        -0.9999994039535522
      ],
      "type": "VEC3"
    },
    {
      "bufferView": 3,
      "componentType": 5126,
      "count": 3653,
      "max": [
        0.9999321699142456,
        0.9994477033615112,
        0.9999998211860657,
        1.0
      ],
      "min": [
        -0.9998574256896973,
        -0.9969741702079773,
        -0.9999489784240723,
        -1.0
      ],
      "type": "VEC4"
    },
    {
      "bufferView": 1,
      "componentType": 5126,
      "count": 3653,
      "max": [
        0.9935022592544556,
        0.9907999038696289
      ],
      "min": [
        0.0014998316764831543,
        0.0014930367469787598
      ],
      "type": "VEC2"
    },
    {
      "bufferView": 0,
      "componentType": 5125,
      "count": 20028,
      "type": "SCALAR"
    }
  ],
  "asset": {
    "extras": {
      "author": "plasmaernst (https://sketchfab.com/plasmaernst)",
      "license": "CC-BY-4.0 (http://creativecommons.org/licenses/by/4.0/)",
      "source": "https://sketchfab.com/3d-models/force-celte-processed-7a908dffbcbd4ce9ba82d3f5e25fc9ab",
      "title": "Force Celte, processed"
    },
    "generator": "Sketchfab-14.35.0",
    "version": "2.0"
  },
  "bufferViews": [
    {
      "buffer": 0,
      "byteLength": 80112,
      "name": "floatBufferViews",
      "target": 34963
    },
    {
      "buffer": 0,
      "byteLength": 29224,
      "byteOffset": 80112,
      "byteStride": 8,
      "name": "floatBufferViews",
      "target": 34962
    },
    {
      "buffer": 0,
      "byteLength": 87672,
      "byteOffset": 109336,
      "byteStride": 12,
      "name": "floatBufferViews",
      "target": 34962
    },
    {
      "buffer": 0,
      "byteLength": 58448,
      "byteOffset": 197008,
      "byteStride": 16,
      "name": "floatBufferViews",
      "target": 34962
    }
  ],
  "buffers": [
    {
      "byteLength": 255456,
      "uri": "scene.bin"
    }
  ],
  "images": [
    {
      "uri": "textures/M_ForceCelte_baseColor.png"
    },
    {
      "uri": "textures/M_ForceCelte_metallicRoughness.png"
    },
    {
      "uri": "textures/M_ForceCelte_normal.png"
    }
  ],
  "materials": [
    {
      "doubleSided": true,
      "name": "M_ForceCelte",
      "normalTexture": {
        "index": 2
      },
      "occlusionTexture": {
        "index": 1,
        "strength": 0.5
      },
      "pbrMetallicRoughness": {
        "baseColorTexture": {
          "index": 0
        },
        "metallicFactor": 0.0,
        "metallicRoughnessTexture": {
          "index": 1
        }
      }
    }
  ],
  "meshes": [
    {
      "name": "Force Celte_low_M_ForceCelte_0",
      "primitives": [
        {
          "attributes": {
            "NORMAL": 1,
            "POSITION": 0,
            "TANGENT": 2,
            "TEXCOORD_0": 3
          },
          "indices": 4,
          "material": 0,
          "mode": 4
        }
      ]
    }
  ],
  "nodes": [
    {
      "children": [
        1
      ],
      "matrix": [
        1.0,
        0.0,
        0.0,
        0.0,
        0.0,
        2.220446049250313e-16,
        -1.0,
        0.0,
        0.0,
        1.0,
        2.220446049250313e-16,
        0.0,
        0.0,
        0.0,
        0.0,
        1.0
      ],
      "name": "Sketchfab_model"
    },
    {
      "children": [
        2
      ],
      "matrix": [
        0.009999999776482582,
        0.0,
        0.0,
        0.0,
        0.0,
        0.0,
        0.009999999776482582,
        0.0,
        0.0,
        -0.009999999776482582,
        0.0,
        0.0,
        0.0,
        0.0,
        0.0,
        1.0
      ],
      "name": "4dd7e8610ed74cecb277b862a5bef9dd.fbx"
    },
    {
      "children": [
        3
      ],
      "name": "RootNode"
    },
    {
      "children": [
        4
      ],
      "matrix": [
        100.0,
        0.0,
        0.0,
        0.0,
        0.0,
        -1.629206793918314e-05,
        -99.99999999999868,
        0.0,
        0.0,
        99.99999999999868,
        -1.629206793918314e-05,
        0.0,
        0.0,
        0.0,
        0.0,
        1.0
      ],
      "name": "Force Celte_low"
    },
    {
      "mesh": 0,
      "name": "Force Celte_low_M_ForceCelte_0"
    }
  ],
  "samplers": [
    {
      "magFilter": 9729,
      "minFilter": 9987,
      "wrapS": 10497,
      "wrapT": 10497
    }
  ],
  "scene": 0,
  "scenes": [
    {
      "name": "Sketchfab_Scene",
      "nodes": [
        0
      ]
    }
  ],
  "textures": [
    {
      "sampler": 0,
      "source": 0
    },
    {
      "sampler": 0,
      "source": 1
    },
    {
      "sampler": 0,
      "source": 2
    }
  ]
}
