{
  "accessors": [
    {
      "bufferView": 2,
      "componentType": 5126,
      "count": 25627,
      "max": [
        1.3722349405288696,
        1.8452670574188232,
        1.594285011291504
      ],
      "min": [
        -1.3720680475234985,
        -1.1868629455566406,
        -2.0331239700317383
      ],
      "type": "VEC3"
    },
    {
      "bufferView": 2,
      "byteOffset": 307524,
      "componentType": 5126,
      "count": 25627,
      "max": [
        0.9999350309371948,
        0.9999442100524902,
        0.9999828338623047
      ],
      "min": [
        -0.9999386072158813,
        -0.9999760389328003,
        -0.9994855523109436
      ],
      "type": "VEC3"
    },
    {
      "bufferView": 3,
      "componentType": 5126,
      "count": 25627,
      "max": [
        0.9999022483825684,
        0.9994566440582275,
        0.9998130798339844,
        1.0
      ],
      "min": [
        -0.9999737739562988,
        -0.9994187951087952,
        -0.9998556971549988,
        -1.0
      ],
      "type": "VEC4"
    },
    {
      "bufferView": 1,
      "componentType": 5126,
      "count": 25627,
      "max": [
        0.9921690225601196,
        0.9924939870834351
      ],
      "min": [
        0.007505999878048897,
        0.007505999878048897
      ],
      "type": "VEC2"
    },
    {
      "bufferView": 0,
      "componentType": 5125,
      "count": 105294,
      "type": "SCALAR"
    }
  ],
  "asset": {
    "extras": {
      "author": "Dawnstar-Chronicles (https://sketchfab.com/Dawnstar-Chronicles)",
      "license": "CC-BY-4.0 (http://creativecommons.org/licenses/by/4.0/)",
      "source": "https://sketchfab.com/3d-models/dwarven-stone-head-statue-814970f5eb9543f2a41cc39b65c19c68",
      "title": "Dwarven Stone Head Statue"
    },
    "generator": "Sketchfab-16.8.0",
    "version": "2.0"
  },
  "bufferViews": [
    {
      "buffer": 0,
      "byteLength": 421176,
      "name": "floatBufferViews",
      "target": 34963
    },
    {
      "buffer": 0,
      "byteLength": 205016,
      "byteOffset": 421176,
      "byteStride": 8,
      "name": "floatBufferViews",
      "target": 34962
    },
    {
      "buffer": 0,
      "byteLength": 615048,
      "byteOffset": 626192,
      "byteStride": 12,
      "name": "floatBufferViews",
      "target": 34962
    },
    {
      "buffer": 0,
      "byteLength": 410032,
      "byteOffset": 1241240,
      "byteStride": 16,
      "name": "floatBufferViews",
      "target": 34962
    }
  ],
  "buffers": [
    {
      "byteLength": 1651272,
      "uri": "scene.bin"
    }
  ],
  "images": [
    {
      "uri": "textures/dwarfhead_material_baseColor.png"
    },
    {
      "uri": "textures/dwarfhead_material_metallicRoughness.png"
    },
    {
      "uri": "textures/dwarfhead_material_normal.png"
    }
  ],
  "materials": [
    {
      "doubleSided": true,
      "name": "dwarfhead_material",
      "normalTexture": {
        "index": 2
      },
      "pbrMetallicRoughness": {
        "baseColorTexture": {
          "index": 0
        },
        "metallicFactor": 0.0,
        "metallicRoughnessTexture": {
          "index": 1
        }
      }
    }
  ],
  "meshes": [
    {
      "name": "Object_0",
      "primitives": [
        {
          "attributes": {
            "NORMAL": 1,
            "POSITION": 0,
            "TANGENT": 2,
            "TEXCOORD_0": 3
          },
          "indices": 4,
          "material": 0,
          "mode": 4
        }
      ]
    }
  ],
  "nodes": [
    {
      "children": [
        1
      ],
      "matrix": [
        1.0,
        0.0,
        0.0,
        0.0,
        0.0,
        2.220446049250313e-16,
        -1.0,
        0.0,
        0.0,
        1.0,
        2.220446049250313e-16,
        0.0,
        0.0,
        0.0,
        0.0,
        1.0
      ],
      "name": "Sketchfab_model"
    },
    {
      "children": [
        2
      ],
      "name": "dwarven sculpture.obj.cleaner.materialmerger.gles"
    },
    {
      "mesh": 0,
      "name": "Object_2"
    }
  ],
  "samplers": [
    {
      "magFilter": 9729,
      "minFilter": 9987,
      "wrapS": 10497,
      "wrapT": 10497
    }
  ],
  "scene": 0,
  "scenes": [
    {
      "name": "Sketchfab_Scene",
      "nodes": [
        0
      ]
    }
  ],
  "textures": [
    {
      "sampler": 0,
      "source": 0
    },
    {
      "sampler": 0,
      "source": 1
    },
    {
      "sampler": 0,
      "source": 2
    }
  ]
}
