{
  "accessors": [
    {
      "bufferView": 2,
      "componentType": 5126,
      "count": 34284,
      "max": [
        0.1911025047302246,
        0.2794985771179199,
        0.10216331481933594
      ],
      "min": [
        -0.1994624137878418,
        0.0517573356628418,
        -0.24915122985839844
      ],
      "type": "VEC3"
    },
    {
      "bufferView": 2,
      "byteOffset": 411408,
      "componentType": 5126,
      "count": 34284,
      "max": [
        0.9996447563171387,
        0.9999993443489075,
        0.9999215006828308
      ],
      "min": [
        -0.9999949932098389,
        -0.9999993443489075,
        -0.9999985098838806
      ],
      "type": "VEC3"
    },
    {
      "bufferView": 3,
      "componentType": 5126,
      "count": 34284,
      "max": [
        0.9999994039535522,
        0.9992210268974304,
        0.9999319314956665,
        1.0
      ],
      "min": [
        -0.9999761581420898,
        -0.9995611310005188,
        -0.9999772906303406,
        -1.0
      ],
      "type": "VEC4"
    },
    {
      "bufferView": 1,
      "componentType": 5126,
      "count": 34284,
      "max": [
        0.994530975818634,
        0.9998250007629395
      ],
      "min": [
        8.199999865610152e-05,
        0.00022399425506591797
      ],
      "type": "VEC2"
    },
    {
      "bufferView": 1,
      "byteOffset": 274272,
      "componentType": 5126,
      "count": 34284,
      "max": [
        0.994530975818634,
        0.9998250007629395
      ],
      "min": [
        8.199999865610152e-05,
        0.00022399425506591797
      ],
      "type": "VEC2"
    },
    {
      "bufferView": 1,
      "byteOffset": 548544,
      "componentType": 5126,
      "count": 34284,
      "max": [
        0.994530975818634,
        0.9998250007629395
      ],
      "min": [
        8.199999865610152e-05,
        0.00022399425506591797
      ],
      "type": "VEC2"
    },
    {
      "bufferView": 1,
      "byteOffset": 822816,
      "componentType": 5126,
      "count": 34284,
      "max": [
        0.994530975818634,
        0.9998250007629395
      ],
      "min": [
        8.199999865610152e-05,
        0.00022399425506591797
      ],
      "type": "VEC2"
    },
    {
      "bufferView": 0,
      "componentType": 5125,
      "count": 192000,
      "type": "SCALAR"
    }
  ],
  "asset": {
    "extras": {
      "author": "Minneapolis Institute of Art (https://sketchfab.com/artsmia)",
      "license": "CC-BY-4.0 (http://creativecommons.org/licenses/by/4.0/)",
      "source": "https://sketchfab.com/3d-models/loie-fuller-sculpture-by-joseph-kratina-05ba00cefb5b4a7e8cecda2a91d6a568",
      "title": "Loie Fuller sculpture by Joseph Kratina"
    },
    "generator": "Sketchfab-16.12.0",
    "version": "2.0"
  },
  "bufferViews": [
    {
      "buffer": 0,
      "byteLength": 768000,
      "name": "floatBufferViews",
      "target": 34963
    },
    {
      "buffer": 0,
      "byteLength": 1097088,
      "byteOffset": 768000,
      "byteStride": 8,
      "name": "floatBufferViews",
      "target": 34962
    },
    {
      "buffer": 0,
      "byteLength": 822816,
      "byteOffset": 1865088,
      "byteStride": 12,
      "name": "floatBufferViews",
      "target": 34962
    },
    {
      "buffer": 0,
      "byteLength": 548544,
      "byteOffset": 2687904,
      "byteStride": 16,
      "name": "floatBufferViews",
      "target": 34962
    }
  ],
  "buffers": [
    {
      "byteLength": 3236448,
      "uri": "scene.bin"
    }
  ],
  "extensionsRequired": [
    "KHR_materials_pbrSpecularGlossiness"
  ],
  "extensionsUsed": [
    "KHR_materials_pbrSpecularGlossiness"
  ],
  "images": [
    {
      "uri": "textures/material_0_diffuse.png"
    },
    {
      "uri": "textures/material_0_specularGlossiness.png"
    },
    {
      "uri": "textures/material_0_normal.png"
    }
  ],
  "materials": [
    {
      "extensions": {
        "KHR_materials_pbrSpecularGlossiness": {
          "diffuseFactor": [
            1.0,
            1.0,
            1.0,
            1.0
          ],
          "diffuseTexture": {
            "index": 0
          },
          "glossinessFactor": 1.0,
          "specularFactor": [
            1.0,
            1.0,
            1.0
          ],
          "specularGlossinessTexture": {
            "index": 1
          }
        }
      },
      "name": "material_0",
      "normalTexture": {
        "index": 2
      }
    }
  ],
  "meshes": [
    {
      "name": "Object_0",
      "primitives": [
        {
          "attributes": {
            "NORMAL": 1,
            "POSITION": 0,
            "TANGENT": 2,
            "TEXCOORD_0": 3,
            "TEXCOORD_1": 4,
            "TEXCOORD_2": 5,
            "TEXCOORD_3": 6
          },
          "indices": 7,
          "material": 0,
          "mode": 4
        }
      ]
    }
  ],
  "nodes": [
    {
      "children": [
        1
      ],
      "matrix": [
        1.0,
        0.0,
        0.0,
        0.0,
        0.0,
        2.220446049250313e-16,
        -1.0,
        0.0,
        0.0,
        1.0,
        2.220446049250313e-16,
        0.0,
        0.0,
        0.0,
        0.0,
        1.0
      ],
      "name": "Sketchfab_model"
    },
    {
      "children": [
        2
      ],
      "name": "root"
    },
    {
      "children": [
        3
      ],
      "matrix": [
        1.0,
        0.0,
        0.0,
        0.0,
        0.0,
        2.220446049250313e-16,
        1.0,
        0.0,
        0.0,
        -1.0,
        2.220446049250313e-16,
        0.0,
        0.0,
        0.0,
        0.0,
        1.0
      ],
      "name": "GLTF_SceneRootNode"
    },
    {
      "children": [
        4
      ],
      "name": "_0"
    },
    {
      "mesh": 0,
      "name": "Object_4"
    }
  ],
  "samplers": [
    {
      "magFilter": 9729,
      "minFilter": 9987,
      "wrapS": 10497,
      "wrapT": 10497
    }
  ],
  "scene": 0,
  "scenes": [
    {
      "name": "Sketchfab_Scene",
      "nodes": [
        0
      ]
    }
  ],
  "textures": [
    {
      "sampler": 0,
      "source": 0
    },
    {
      "sampler": 0,
      "source": 1
    },
    {
      "sampler": 0,
      "source": 2
    }
  ]
}
