{
  "accessors": [
    {
      "bufferView": 2,
      "componentType": 5126,
      "count": 6463,
      "max": [
        0.8944000005722046,
        4.452023029327393,
        1.5285760164260864
      ],
      "min": [
        -0.6999930143356323,
        2.6828670501708984,
        -1.2828609943389893
      ],
      "type": "VEC3"
    },
    {
      "bufferView": 2,
      "byteOffset": 77556,
      "componentType": 5126,
      "count": 6463,
      "max": [
        0.9998886585235596,
        0.9999282360076904,
        0.9980242252349854
      ],
      "min": [
        -0.999309241771698,
        -0.9999840259552002,
        -0.9991887807846069
      ],
      "type": "VEC3"
    },
    {
      "bufferView": 3,
      "componentType": 5126,
      "count": 6463,
      "max": [
        0.9994469285011292,
        0.9960482120513916,
        0.9825332164764404,
        1.0
      ],
      "min": [
        -0.9999611377716064,
        -0.9996394515037537,
        -0.9988099932670593,
        -1.0
      ],
      "type": "VEC4"
    },
    {
      "bufferView": 1,
      "componentType": 5126,
      "count": 6463,
      "max": [
        0.9980400204658508,
        0.9641500115394592
      ],
      "min": [
        0.0019499999471008778,
        0.0019499999471008778
      ],
      "type": "VEC2"
    },
    {
      "bufferView": 0,
      "componentType": 5125,
      "count": 37350,
      "type": "SCALAR"
    },
    {
      "bufferView": 2,
      "byteOffset": 155112,
      "componentType": 5126,
      "count": 1567,
      "max": [
        0.9744600057601929,
        3.4902849197387695,
        1.443835973739624
      ],
      "min": [
        0.5070679783821106,
        3.399066925048828,
        1.0912009477615356
      ],
      "type": "VEC3"
    },
    {
      "bufferView": 2,
      "byteOffset": 173916,
      "componentType": 5126,
      "count": 1567,
      "max": [
        0.9989610910415649,
        0.9999483823776245,
        0.9946849942207336
      ],
      "min": [
        -0.9765142202377319,
        -0.999948263168335,
        -0.9946873784065247
      ],
      "type": "VEC3"
    },
    {
      "bufferView": 1,
      "byteOffset": 51704,
      "componentType": 5126,
      "count": 1567,
      "max": [
        0.9902099967002869,
        0.9807810187339783
      ],
      "min": [
        0.7797210216522217,
        0.006146000232547522
      ],
      "type": "VEC2"
    },
    {
      "bufferView": 0,
      "byteOffset": 149400,
      "componentType": 5125,
      "count": 5724,
      "type": "SCALAR"
    }
  ],
  "asset": {
    "extras": {
      "author": "MuseuSilva (https://sketchfab.com/MuseuSilva)",
      "license": "CC-BY-4.0 (http://creativecommons.org/licenses/by/4.0/)",
      "source": "https://sketchfab.com/3d-models/escultura-16-jose-antonio-da-silva-1998c7f845ac4c498bd9bd276c3b834e",
      "title": "Escultura 16 - José Antônio da Silva"
    },
    "generator": "Sketchfab-14.86.0",
    "version": "2.0"
  },
  "bufferViews": [
    {
      "buffer": 0,
      "byteLength": 172296,
      "name": "floatBufferViews",
      "target": 34963
    },
    {
      "buffer": 0,
      "byteLength": 64240,
      "byteOffset": 172296,
      "byteStride": 8,
      "name": "floatBufferViews",
      "target": 34962
    },
    {
      "buffer": 0,
      "byteLength": 192720,
      "byteOffset": 236536,
      "byteStride": 12,
      "name": "floatBufferViews",
      "target": 34962
    },
    {
      "buffer": 0,
      "byteLength": 103408,
      "byteOffset": 429256,
      "byteStride": 16,
      "name": "floatBufferViews",
      "target": 34962
    }
  ],
  "buffers": [
    {
      "byteLength": 532664,
      "uri": "scene.bin"
    }
  ],
  "extensionsUsed": [
    "KHR_materials_specular"
  ],
  "images": [
    {
      "uri": "textures/Escultura_16_-_LowPoly1_baseColor.jpeg"
    },
    {
      "uri": "textures/Escultura_16_-_LowPoly1_metallicRoughness.png"
    },
    {
      "uri": "textures/Escultura_16_-_LowPoly1_normal.jpeg"
    },
    {
      "uri": "textures/Escultura_16_-_LowPoly1_specularf0.png"
    }
  ],
  "materials": [
    {
      "doubleSided": true,
      "extensions": {
        "KHR_materials_specular": {
          "specularColorFactor": [
            1.0,
            1.0,
            1.0
          ],
          "specularFactor": 0.5,
          "specularTexture": {
            "index": 3
          }
        }
      },
      "name": "Escultura_16_-_LowPoly1",
      "normalTexture": {
        "index": 2
      },
      "occlusionTexture": {
        "index": 1,
        "strength": 0.7177164730406796
      },
      "pbrMetallicRoughness": {
        "baseColorTexture": {
          "index": 0
        },
        "metallicFactor": 0.0,
        "metallicRoughnessTexture": {
          "index": 1
        }
      }
    },
    {
      "doubleSided": true,
      "extensions": {
        "KHR_materials_specular": {
          "specularColorFactor": [
            1.0,
            1.0,
            1.0
          ],
          "specularFactor": 0.0
        }
      },
      "name": "Escultura_16_-_LowPoly11",
      "occlusionTexture": {
        "index": 1
      },
      "pbrMetallicRoughness": {
        "baseColorTexture": {
          "index": 0
        },
        "metallicFactor": 0.0,
        "metallicRoughnessTexture": {
          "index": 1
        },
        "roughnessFactor": 0.13257183259987076
      }
    }
  ],
  "meshes": [
    {
      "name": "Object_0",
      "primitives": [
        {
          "attributes": {
            "NORMAL": 1,
            "POSITION": 0,
            "TANGENT": 2,
            "TEXCOORD_0": 3
          },
          "indices": 4,
          "material": 0,
          "mode": 4
        }
      ]
    },
    {
      "name": "Object_1",
      "primitives": [
        {
          "attributes": {
            "NORMAL": 6,
            "POSITION": 5,
            "TEXCOORD_0": 7
          },
          "indices": 8,
          "material": 1,
          "mode": 4
        }
      ]
    }
  ],
  "nodes": [
    {
      "children": [
        1
      ],
      "matrix": [
        0.5342398881912231,
        0.004212955012917331,
        0.8453224301338196,
        0.0,
        0.636627197265625,
        -0.6598935723304747,
        -0.3990567028522493,
        0.0,
        0.5561416149139404,
        0.7513472437858583,
        -0.35522356629371626,
        0.0,
        0.0,
        0.0,
        0.0,
        1.0
      ],
      "name": "Sketchfab_model"
    },
    {
      "children": [
        2,
        3
      ],
      "name": "Escultura 16 - LowPoly1.obj.cleaner.materialmerger.gles"
    },
    {
      "mesh": 0,
      "name": "Object_2"
    },
    {
      "mesh": 1,
      "name": "Object_3"
    }
  ],
  "samplers": [
    {
      "magFilter": 9729,
      "minFilter": 9987,
      "wrapS": 10497,
      "wrapT": 10497
    }
  ],
  "scene": 0,
  "scenes": [
    {
      "name": "Sketchfab_Scene",
      "nodes": [
        0
      ]
    }
  ],
  "textures": [
    {
      "sampler": 0,
      "source": 0
    },
    {
      "sampler": 0,
      "source": 1
    },
    {
      "sampler": 0,
      "source": 2
    },
    {
      "sampler": 0,
      "source": 3
    }
  ]
}
