{
  "accessors": [
    {
      "bufferView": 2,
      "componentType": 5126,
      "count": 19690,
      "max": [
        11.5741548538208,
        9.132880210876465,
        30.68258285522461
      ],
      "min": [
        -9.585179328918457,
        -13.191468238830566,
        1.896723747253418
      ],
      "type": "VEC3"
    },
    {
      "bufferView": 2,
      "byteOffset": 236280,
      "componentType": 5126,
      "count": 19690,
      "max": [
        0.9996105432510376,
        0.9999011158943176,
        0.9998777508735657
      ],
      "min": [
        -0.9998235106468201,
        -0.9998496174812317,
        -0.9999974966049194
      ],
      "type": "VEC3"
    },
    {
      "bufferView": 1,
      "componentType": 5126,
      "count": 19690,
      "max": [
        0.999748945236206,
        0.9997332692146301
      ],
      "min": [
        0.000244140625,
        0.004150509834289551
      ],
      "type": "VEC2"
    },
    {
      "bufferView": 0,
      "componentType": 5125,
      "count": 74994,
      "type": "SCALAR"
    }
  ],
  "asset": {
    "extras": {
      "author": "ajsomchat (https://sketchfab.com/ajsomchat)",
      "license": "CC-BY-4.0 (http://creativecommons.org/licenses/by/4.0/)",
      "source": "https://sketchfab.com/3d-models/canabis-bong-model-aeb90cdd9fc3492fb3c5b179772da10e",
      "title": "canabis bong Model"
    },
    "generator": "Sketchfab-15.19.0",
    "version": "2.0"
  },
  "bufferViews": [
    {
      "buffer": 0,
      "byteLength": 299976,
      "name": "floatBufferViews",
      "target": 34963
    },
    {
      "buffer": 0,
      "byteLength": 157520,
      "byteOffset": 299976,
      "byteStride": 8,
      "name": "floatBufferViews",
      "target": 34962
    },
    {
      "buffer": 0,
      "byteLength": 472560,
      "byteOffset": 457496,
      "byteStride": 12,
      "name": "floatBufferViews",
      "target": 34962
    }
  ],
  "buffers": [
    {
      "byteLength": 930056,
      "uri": "scene.bin"
    }
  ],
  "extensionsUsed": [
    "KHR_materials_unlit"
  ],
  "images": [
    {
      "uri": "textures/default_tex0_baseColor.jpeg"
    }
  ],
  "materials": [
    {
      "extensions": {
        "KHR_materials_unlit": {}
      },
      "name": "default_tex0",
      "pbrMetallicRoughness": {
        "baseColorTexture": {
          "index": 0
        },
        "metallicFactor": 0.0
      }
    }
  ],
  "meshes": [
    {
      "name": "Object_0",
      "primitives": [
        {
          "attributes": {
            "NORMAL": 1,
            "POSITION": 0,
            "TEXCOORD_0": 2
          },
          "indices": 3,
          "material": 0,
          "mode": 4
        }
      ]
    }
  ],
  "nodes": [
    {
      "children": [
        1
      ],
      "matrix": [
        -0.22791257500648499,
        0.06729555875062965,
        -0.97135329246521,
        0.0,
        -0.1059802919626236,
        -0.9933962225914001,
        -0.043956108391285165,
        0.0,
        -0.9678966999053955,
        0.09292615205049509,
        0.233539491891861,
        0.0,
        0.0,
        0.0,
        0.0,
        1.0
      ],
      "name": "Sketchfab_model"
    },
    {
      "children": [
        2
      ],
      "name": "root"
    },
    {
      "children": [
        3
      ],
      "matrix": [
        1.0,
        0.0,
        0.0,
        0.0,
        0.0,
        2.220446049250313e-16,
        1.0,
        0.0,
        0.0,
        -1.0,
        2.220446049250313e-16,
        0.0,
        0.0,
        0.0,
        0.0,
        1.0
      ],
      "name": "GLTF_SceneRootNode"
    },
    {
      "children": [
        4
      ],
      "name": "_0"
    },
    {
      "mesh": 0,
      "name": "Object_4"
    }
  ],
  "samplers": [
    {
      "magFilter": 9729,
      "minFilter": 9729,
      "wrapS": 33071,
      "wrapT": 33071
    }
  ],
  "scene": 0,
  "scenes": [
    {
      "name": "Sketchfab_Scene",
      "nodes": [
        0
      ]
    }
  ],
  "textures": [
    {
      "sampler": 0,
      "source": 0
    }
  ]
}
